<?xml version="1.0" standalone="no"?>
<!DOCTYPE svg PUBLIC "-//W3C//DTD SVG 20010904//EN"
 "http://www.w3.org/TR/2001/REC-SVG-20010904/DTD/svg10.dtd">
<svg version="1.0" xmlns="http://www.w3.org/2000/svg"
 width="512.000000pt" height="512.000000pt" viewBox="0 0 512.000000 512.000000"
 preserveAspectRatio="xMidYMid meet">
<metadata>
Created by potrace 1.11, written by Peter Selinger 2001-2013
</metadata>
<g transform="translate(0.000000,512.000000) scale(0.100000,-0.100000)"
fill="#000000" stroke="none">
<path d="M2547 4710 c-35 -28 -48 -69 -32 -106 7 -16 38 -63 69 -104 31 -41
59 -85 62 -97 4 -13 9 -23 13 -23 11 0 34 -90 33 -125 -2 -61 -34 -110 -91
-140 -16 -8 -84 -30 -153 -49 -403 -114 -693 -257 -855 -422 -133 -135 -183
-289 -146 -447 15 -66 69 -176 108 -221 14 -16 25 -30 25 -30 0 -1 -75 -1
-167 -2 -204 0 -257 -7 -351 -45 -188 -75 -324 -217 -388 -409 -57 -168 -31
-367 67 -513 21 -33 36 -63 33 -68 -3 -5 -2 -8 3 -7 9 3 59 -36 80 -62 10 -13
4 -15 -35 -18 -118 -6 -230 -45 -344 -119 -259 -169 -378 -485 -297 -788 54
-201 216 -389 404 -468 154 -65 10 -60 1940 -61 963 0 1775 3 1805 7 196 24
396 149 504 316 56 85 71 119 97 215 109 403 -171 833 -581 891 -25 3 -54 8
-65 10 -11 2 -23 4 -28 4 -4 1 11 17 33 37 59 54 125 159 156 249 40 118 40
261 -1 380 -78 229 -279 401 -515 441 -25 4 -117 8 -205 9 -181 2 -175 -2
-120 80 84 128 159 312 185 455 12 65 15 198 6 255 -8 52 -26 129 -35 150 -5
11 -19 43 -31 70 -110 249 -405 491 -810 663 -109 46 -136 57 -152 61 -4 1
-35 13 -70 27 -75 29 -117 30 -151 4z"/>
</g>
</svg>
